<?xml version="1.0" standalone="no"?>
<!DOCTYPE svg PUBLIC "-//W3C//DTD SVG 20010904//EN"
 "http://www.w3.org/TR/2001/REC-SVG-20010904/DTD/svg10.dtd">
<svg version="1.0" xmlns="http://www.w3.org/2000/svg"
 width="500.000000pt" height="500.000000pt" viewBox="0 0 500.000000 500.000000"
 preserveAspectRatio="xMidYMid meet">

<g transform="translate(0.000000,500.000000) scale(0.100000,-0.100000)"
fill="#000000" stroke="none">
<path d="M820 2468 l0 -1443 39 40 c21 22 458 499 971 1060 513 561 956 1045
984 1075 63 68 149 140 -837 -703 -460 -395 -839 -717 -842 -717 -3 0 -5 410
-5 910 l0 910 1066 0 1066 0 172 147 c94 80 175 150 180 155 6 4 -621 8 -1392
8 l-1402 0 0 -1442z"/>
<path d="M3908 3521 l-158 -225 0 -1158 0 -1158 -671 0 c-543 0 -670 2 -666
13 4 11 1044 1852 1100 1947 11 19 15 31 9 25 -6 -5 -371 -525 -811 -1155
l-800 -1145 1076 -3 c592 -1 1078 -1 1080 1 2 2 2 697 1 1543 l-3 1540 -157
-225z"/>
</g>
</svg>
