<svg xmlns="http://www.w3.org/2000/svg" width="375" viewBox="0 0 375 375" height="375" version="1.0"><defs><clipPath id="a"><path d="M 155 90 L 220 90 L 220 285.417969 L 155 285.417969 Z M 155 90"/></clipPath></defs><g clip-path="url(#a)"><path fill="#0057FF" d="M 211.8125 91.050781 C 206.605469 89.710938 201.308594 92.910156 200.015625 98.136719 L 156.222656 273.308594 C 154.90625 278.515625 158.078125 283.800781 163.304688 285.105469 C 164.09375 285.296875 164.894531 285.394531 165.671875 285.394531 C 170.03125 285.394531 173.992188 282.445312 175.101562 278.019531 L 218.898438 102.847656 C 220.203125 97.640625 217.027344 92.355469 211.8125 91.050781 Z M 211.8125 91.050781"/></g><path fill="#0057FF" d="M 145.777344 122.808594 C 141.972656 119.003906 135.820312 119.003906 132.015625 122.808594 L 73.621094 181.199219 C 69.816406 185.003906 69.816406 191.15625 73.621094 194.960938 L 132.015625 253.347656 C 133.914062 255.246094 136.40625 256.199219 138.898438 256.199219 C 141.386719 256.199219 143.878906 255.246094 145.777344 253.347656 C 149.582031 249.542969 149.582031 243.394531 145.777344 239.589844 L 94.265625 188.078125 L 145.777344 136.570312 C 149.582031 132.765625 149.582031 126.613281 145.777344 122.808594 Z M 145.777344 122.808594"/><path fill="#0057FF" d="M 301.496094 181.199219 L 243.101562 122.808594 C 239.296875 119.003906 233.144531 119.003906 229.339844 122.808594 C 225.535156 126.613281 225.535156 132.765625 229.339844 136.570312 L 280.855469 188.078125 L 229.339844 239.589844 C 225.535156 243.394531 225.535156 249.542969 229.339844 253.347656 C 231.238281 255.246094 233.730469 256.199219 236.222656 256.199219 C 238.710938 256.199219 241.203125 255.246094 243.101562 253.347656 L 301.496094 194.960938 C 305.304688 191.15625 305.304688 185.003906 301.496094 181.199219 Z M 301.496094 181.199219"/></svg>